<svg width="25" height="24" viewBox="0 0 25 24" fill="none" xmlns="http://www.w3.org/2000/svg">
<g clip-path="url(#clip0_1_418)">
<path d="M23.4991 9.7095C23.5485 8.27816 23.2355 6.85752 22.5891 5.5795C22.1505 5.0551 21.5418 4.70121 20.8691 4.5795C18.0866 4.32703 15.2926 4.22355 12.4991 4.2695C9.7157 4.22146 6.93176 4.3216 4.15905 4.5695C3.61087 4.66922 3.10357 4.92635 2.69905 5.3095C1.79905 6.1395 1.69905 7.5595 1.59905 8.7595C1.45396 10.917 1.45396 13.0819 1.59905 15.2395C1.62798 15.9149 1.72854 16.5853 1.89905 17.2395C2.01963 17.7445 2.26357 18.2118 2.60905 18.5995C3.01632 19.0029 3.53543 19.2747 4.09905 19.3795C6.25497 19.6456 8.42727 19.7559 10.5991 19.7095C14.0991 19.7595 17.169 19.7095 20.799 19.4295C21.3765 19.3311 21.9102 19.059 22.3291 18.6495C22.609 18.3694 22.8181 18.0266 22.9391 17.6495C23.2967 16.5521 23.4723 15.4036 23.459 14.2495C23.4991 13.6895 23.4991 10.3095 23.4991 9.7095ZM10.239 14.8495V8.65949L16.159 11.7695C14.4991 12.6895 12.309 13.7295 10.239 14.8495Z" fill="white"/>
</g>
<defs>
<clipPath id="clip0_1_418">
<rect width="24" height="24" fill="white" transform="translate(0.5)"/>
</clipPath>
</defs>
</svg>
