<svg width="21" height="16" viewBox="0 0 21 16" fill="none" xmlns="http://www.w3.org/2000/svg">
<path d="M20.5 1.89418C19.7642 2.21575 18.9733 2.43232 18.1433 2.52994C18.9908 2.03035 19.6417 1.23872 19.9475 0.29532C19.155 0.758 18.2767 1.09434 17.3417 1.27564C16.5942 0.49057 15.5267 0 14.3467 0C11.6975 0 9.7508 2.43314 10.3492 4.95898C6.94 4.79081 3.91667 3.18294 1.8925 0.73913C0.8175 2.55455 1.335 4.92945 3.16167 6.1321C2.49 6.1107 1.85667 5.92945 1.30417 5.62674C1.25917 7.4979 2.62167 9.2486 4.595 9.6382C4.0175 9.7925 3.385 9.8285 2.74167 9.7071C3.26333 11.3117 4.77833 12.4791 6.575 12.5119C4.85 13.8433 2.67667 14.4381 0.5 14.1854C2.31583 15.3314 4.47333 16 6.79 16C14.4083 16 18.7125 9.6661 18.4525 3.98523C19.2542 3.41509 19.95 2.70386 20.5 1.89418Z" fill="white"/>
</svg>
