<svg width="25" height="24" viewBox="0 0 25 24" fill="none" xmlns="http://www.w3.org/2000/svg">
<g clip-path="url(#clip0_1_412)">
<path d="M19.5002 2H5.5C3.5 2 2.5 3 2.5 5L2.50059 19C2.50059 21 3.50021 22 5.50021 22H19.5002C21.5002 22 22.5002 21 22.5002 19V5C22.5002 3 21.5002 2 19.5002 2ZM9.16687 17.8334H6.66687V8.66667H9.16687V17.8334ZM7.91687 7.61C7.11187 7.61 6.45854 6.95167 6.45854 6.14C6.45854 5.32833 7.11187 4.67 7.91687 4.67C8.72187 4.67 9.37521 5.32833 9.37521 6.14C9.37521 6.95167 8.72271 7.61 7.91687 7.61ZM19.1669 17.8334H16.6669V13.1634C16.6669 10.3567 13.3335 10.5692 13.3335 13.1634V17.8334H10.8335V8.66667H13.3335V10.1375C14.4969 7.9825 19.1669 7.82334 19.1669 12.2009V17.8334Z" fill="white"/>
</g>
<defs>
<clipPath id="clip0_1_412">
<rect width="24" height="24" fill="white" transform="translate(0.5)"/>
</clipPath>
</defs>
</svg>
